<mxfile host="app.diagrams.net" modified="2023-05-10T17:32:59.587Z" agent="Mozilla/5.0 (Windows NT 10.0; Win64; x64) AppleWebKit/537.36 (KHTML, like Gecko) Chrome/112.0.0.0 Safari/537.36" etag="dGvULtgHIkOlpDu-3DDm" version="21.2.9" type="device">
  <diagram name="Page-1" id="pQXiMIiuuoNuS67WZc6c">
    <mxGraphModel dx="956" dy="636" grid="1" gridSize="10" guides="1" tooltips="1" connect="1" arrows="1" fold="1" page="1" pageScale="1" pageWidth="850" pageHeight="1100" math="0" shadow="0">
      <root>
        <mxCell id="0" />
        <mxCell id="1" parent="0" />
        <mxCell id="JehX5wkXH-OCQ7s4x-Md-1" value="" style="rounded=0;whiteSpace=wrap;html=1;" vertex="1" parent="1">
          <mxGeometry x="130" y="240" width="190" height="250" as="geometry" />
        </mxCell>
        <mxCell id="JehX5wkXH-OCQ7s4x-Md-2" value="" style="rounded=0;whiteSpace=wrap;html=1;" vertex="1" parent="1">
          <mxGeometry x="320" y="240" width="190" height="250" as="geometry" />
        </mxCell>
        <mxCell id="JehX5wkXH-OCQ7s4x-Md-3" value="" style="rounded=0;whiteSpace=wrap;html=1;" vertex="1" parent="1">
          <mxGeometry x="510" y="240" width="190" height="250" as="geometry" />
        </mxCell>
        <mxCell id="JehX5wkXH-OCQ7s4x-Md-6" value="" style="whiteSpace=wrap;html=1;" vertex="1" parent="1">
          <mxGeometry x="140" y="450" width="170" height="40" as="geometry" />
        </mxCell>
        <mxCell id="JehX5wkXH-OCQ7s4x-Md-7" value="" style="whiteSpace=wrap;html=1;" vertex="1" parent="1">
          <mxGeometry x="320" y="450" width="190" height="40" as="geometry" />
        </mxCell>
        <mxCell id="JehX5wkXH-OCQ7s4x-Md-8" value="" style="whiteSpace=wrap;html=1;" vertex="1" parent="1">
          <mxGeometry x="510" y="450" width="190" height="40" as="geometry" />
        </mxCell>
        <mxCell id="JehX5wkXH-OCQ7s4x-Md-5" value="Actor" style="shape=umlActor;verticalLabelPosition=bottom;verticalAlign=top;html=1;outlineConnect=0;fontColor=none;noLabel=1;" vertex="1" parent="1">
          <mxGeometry x="150" y="420" width="30" height="60" as="geometry" />
        </mxCell>
        <mxCell id="JehX5wkXH-OCQ7s4x-Md-13" value="" style="curved=1;endArrow=classic;html=1;rounded=0;dashed=1;" edge="1" parent="1">
          <mxGeometry width="50" height="50" relative="1" as="geometry">
            <mxPoint x="280" y="398" as="sourcePoint" />
            <mxPoint x="147" y="365" as="targetPoint" />
            <Array as="points">
              <mxPoint x="290" y="370" />
              <mxPoint x="260" y="310" />
              <mxPoint x="280" y="290" />
              <mxPoint x="280" y="270" />
              <mxPoint x="250" y="260" />
              <mxPoint x="230" y="300" />
              <mxPoint x="180" y="290" />
              <mxPoint x="160" y="330" />
              <mxPoint x="240" y="320" />
              <mxPoint x="190" y="365" />
            </Array>
          </mxGeometry>
        </mxCell>
        <mxCell id="JehX5wkXH-OCQ7s4x-Md-16" value="" style="shape=mxgraph.pid.vessels.gas_bottle;html=1;pointerEvents=1;align=center;verticalLabelPosition=bottom;verticalAlign=top;dashed=0;" vertex="1" parent="1">
          <mxGeometry x="180" y="353" width="10" height="20" as="geometry" />
        </mxCell>
        <mxCell id="JehX5wkXH-OCQ7s4x-Md-18" value="" style="triangle;whiteSpace=wrap;html=1;rotation=-90;" vertex="1" parent="1">
          <mxGeometry x="265" y="410" width="30" height="20" as="geometry" />
        </mxCell>
        <mxCell id="JehX5wkXH-OCQ7s4x-Md-20" value="" style="shape=mxgraph.pid.vessels.gas_bottle;html=1;pointerEvents=1;align=center;verticalLabelPosition=bottom;verticalAlign=top;dashed=0;" vertex="1" parent="1">
          <mxGeometry x="275" y="330" width="10" height="20" as="geometry" />
        </mxCell>
        <mxCell id="JehX5wkXH-OCQ7s4x-Md-22" value="" style="shape=mxgraph.pid.vessels.gas_bottle;html=1;pointerEvents=1;align=center;verticalLabelPosition=bottom;verticalAlign=top;dashed=0;" vertex="1" parent="1">
          <mxGeometry x="218" y="284" width="10" height="20" as="geometry" />
        </mxCell>
        <mxCell id="JehX5wkXH-OCQ7s4x-Md-23" value="" style="shape=mxgraph.pid.vessels.gas_bottle;html=1;pointerEvents=1;align=center;verticalLabelPosition=bottom;verticalAlign=top;dashed=0;" vertex="1" parent="1">
          <mxGeometry x="180" y="353" width="10" height="20" as="geometry" />
        </mxCell>
        <mxCell id="JehX5wkXH-OCQ7s4x-Md-24" value="" style="shape=mxgraph.pid.vessels.gas_bottle;html=1;pointerEvents=1;align=center;verticalLabelPosition=bottom;verticalAlign=top;dashed=0;" vertex="1" parent="1">
          <mxGeometry x="218" y="284" width="10" height="20" as="geometry" />
        </mxCell>
        <mxCell id="JehX5wkXH-OCQ7s4x-Md-25" value="" style="shape=mxgraph.pid.vessels.gas_bottle;html=1;pointerEvents=1;align=center;verticalLabelPosition=bottom;verticalAlign=top;dashed=0;" vertex="1" parent="1">
          <mxGeometry x="468" y="330" width="10" height="20" as="geometry" />
        </mxCell>
        <mxCell id="JehX5wkXH-OCQ7s4x-Md-26" value="" style="shape=mxgraph.pid.vessels.gas_bottle;html=1;pointerEvents=1;align=center;verticalLabelPosition=bottom;verticalAlign=top;dashed=0;" vertex="1" parent="1">
          <mxGeometry x="373" y="353" width="10" height="20" as="geometry" />
        </mxCell>
        <mxCell id="JehX5wkXH-OCQ7s4x-Md-27" value="" style="shape=mxgraph.pid.vessels.gas_bottle;html=1;pointerEvents=1;align=center;verticalLabelPosition=bottom;verticalAlign=top;dashed=0;" vertex="1" parent="1">
          <mxGeometry x="411" y="284" width="10" height="20" as="geometry" />
        </mxCell>
        <mxCell id="JehX5wkXH-OCQ7s4x-Md-28" value="" style="shape=mxgraph.pid.vessels.gas_bottle;html=1;pointerEvents=1;align=center;verticalLabelPosition=bottom;verticalAlign=top;dashed=0;" vertex="1" parent="1">
          <mxGeometry x="655" y="330" width="10" height="20" as="geometry" />
        </mxCell>
        <mxCell id="JehX5wkXH-OCQ7s4x-Md-29" value="" style="shape=mxgraph.pid.vessels.gas_bottle;html=1;pointerEvents=1;align=center;verticalLabelPosition=bottom;verticalAlign=top;dashed=0;" vertex="1" parent="1">
          <mxGeometry x="560" y="353" width="10" height="20" as="geometry" />
        </mxCell>
        <mxCell id="JehX5wkXH-OCQ7s4x-Md-30" value="" style="shape=mxgraph.pid.vessels.gas_bottle;html=1;pointerEvents=1;align=center;verticalLabelPosition=bottom;verticalAlign=top;dashed=0;" vertex="1" parent="1">
          <mxGeometry x="598" y="284" width="10" height="20" as="geometry" />
        </mxCell>
        <mxCell id="JehX5wkXH-OCQ7s4x-Md-31" value="&lt;b&gt;Remotely operated&lt;/b&gt;" style="text;html=1;align=center;verticalAlign=middle;resizable=0;points=[];autosize=1;strokeColor=none;fillColor=none;" vertex="1" parent="1">
          <mxGeometry x="157" y="238" width="130" height="30" as="geometry" />
        </mxCell>
        <mxCell id="JehX5wkXH-OCQ7s4x-Md-33" value="" style="ellipse;shape=cloud;whiteSpace=wrap;html=1;fillColor=#f5f5f5;fontColor=#333333;strokeColor=#666666;" vertex="1" parent="1">
          <mxGeometry x="451" y="271" width="22" height="20" as="geometry" />
        </mxCell>
        <mxCell id="JehX5wkXH-OCQ7s4x-Md-34" value="" style="ellipse;shape=cloud;whiteSpace=wrap;html=1;fillColor=#f5f5f5;fontColor=#333333;strokeColor=#666666;" vertex="1" parent="1">
          <mxGeometry x="249" y="271" width="22" height="20" as="geometry" />
        </mxCell>
        <mxCell id="JehX5wkXH-OCQ7s4x-Md-35" value="" style="ellipse;shape=cloud;whiteSpace=wrap;html=1;fillColor=#f5f5f5;fontColor=#333333;strokeColor=#666666;" vertex="1" parent="1">
          <mxGeometry x="640" y="273" width="22" height="20" as="geometry" />
        </mxCell>
        <mxCell id="JehX5wkXH-OCQ7s4x-Md-47" value="" style="endArrow=none;dashed=1;html=1;strokeWidth=1;rounded=0;" edge="1" parent="1">
          <mxGeometry width="50" height="50" relative="1" as="geometry">
            <mxPoint x="401.43" y="422" as="sourcePoint" />
            <mxPoint x="401" y="292" as="targetPoint" />
          </mxGeometry>
        </mxCell>
        <mxCell id="JehX5wkXH-OCQ7s4x-Md-48" value="" style="endArrow=none;dashed=1;html=1;strokeWidth=1;rounded=0;" edge="1" parent="1">
          <mxGeometry width="50" height="50" relative="1" as="geometry">
            <mxPoint x="371.43" y="422" as="sourcePoint" />
            <mxPoint x="371" y="292" as="targetPoint" />
          </mxGeometry>
        </mxCell>
        <mxCell id="JehX5wkXH-OCQ7s4x-Md-49" value="" style="endArrow=none;dashed=1;html=1;strokeWidth=1;rounded=0;" edge="1" parent="1">
          <mxGeometry width="50" height="50" relative="1" as="geometry">
            <mxPoint x="340.43" y="422" as="sourcePoint" />
            <mxPoint x="340" y="292" as="targetPoint" />
          </mxGeometry>
        </mxCell>
        <mxCell id="JehX5wkXH-OCQ7s4x-Md-50" value="" style="endArrow=none;dashed=1;html=1;strokeWidth=1;rounded=0;" edge="1" parent="1">
          <mxGeometry width="50" height="50" relative="1" as="geometry">
            <mxPoint x="461" y="400" as="sourcePoint" />
            <mxPoint x="461" y="292" as="targetPoint" />
          </mxGeometry>
        </mxCell>
        <mxCell id="JehX5wkXH-OCQ7s4x-Md-51" value="" style="endArrow=none;dashed=1;html=1;strokeWidth=1;rounded=0;" edge="1" parent="1">
          <mxGeometry width="50" height="50" relative="1" as="geometry">
            <mxPoint x="431.43" y="422" as="sourcePoint" />
            <mxPoint x="431" y="292" as="targetPoint" />
          </mxGeometry>
        </mxCell>
        <mxCell id="JehX5wkXH-OCQ7s4x-Md-52" value="" style="curved=1;endArrow=none;html=1;rounded=0;endFill=0;dashed=1;" edge="1" parent="1">
          <mxGeometry width="50" height="50" relative="1" as="geometry">
            <mxPoint x="371" y="292" as="sourcePoint" />
            <mxPoint x="401" y="292" as="targetPoint" />
            <Array as="points">
              <mxPoint x="371" y="272" />
              <mxPoint x="391" y="262" />
              <mxPoint x="401" y="272" />
            </Array>
          </mxGeometry>
        </mxCell>
        <mxCell id="JehX5wkXH-OCQ7s4x-Md-53" value="" style="curved=1;endArrow=none;html=1;rounded=0;endFill=0;dashed=1;" edge="1" parent="1">
          <mxGeometry width="50" height="50" relative="1" as="geometry">
            <mxPoint x="431" y="290" as="sourcePoint" />
            <mxPoint x="461" y="290" as="targetPoint" />
            <Array as="points">
              <mxPoint x="431" y="270" />
              <mxPoint x="451" y="260" />
              <mxPoint x="461" y="270" />
            </Array>
          </mxGeometry>
        </mxCell>
        <mxCell id="JehX5wkXH-OCQ7s4x-Md-54" value="" style="curved=1;endArrow=none;html=1;rounded=0;endFill=0;dashed=1;" edge="1" parent="1">
          <mxGeometry width="50" height="50" relative="1" as="geometry">
            <mxPoint x="340.43" y="422" as="sourcePoint" />
            <mxPoint x="371.43" y="423" as="targetPoint" />
            <Array as="points">
              <mxPoint x="340.43" y="432" />
              <mxPoint x="350.43" y="442" />
              <mxPoint x="360.43" y="442" />
              <mxPoint x="370.43" y="432" />
            </Array>
          </mxGeometry>
        </mxCell>
        <mxCell id="JehX5wkXH-OCQ7s4x-Md-55" value="" style="curved=1;endArrow=none;html=1;rounded=0;endFill=0;dashed=1;" edge="1" parent="1">
          <mxGeometry width="50" height="50" relative="1" as="geometry">
            <mxPoint x="401" y="425" as="sourcePoint" />
            <mxPoint x="431.43" y="423" as="targetPoint" />
            <Array as="points">
              <mxPoint x="400.43" y="432" />
              <mxPoint x="410.43" y="442" />
              <mxPoint x="420.43" y="442" />
              <mxPoint x="430.43" y="432" />
            </Array>
          </mxGeometry>
        </mxCell>
        <mxCell id="JehX5wkXH-OCQ7s4x-Md-65" value="" style="endArrow=none;dashed=1;html=1;strokeWidth=1;rounded=0;" edge="1" parent="1">
          <mxGeometry width="50" height="50" relative="1" as="geometry">
            <mxPoint x="591.4300000000001" y="422" as="sourcePoint" />
            <mxPoint x="591" y="292" as="targetPoint" />
          </mxGeometry>
        </mxCell>
        <mxCell id="JehX5wkXH-OCQ7s4x-Md-66" value="" style="endArrow=none;dashed=1;html=1;strokeWidth=1;rounded=0;" edge="1" parent="1">
          <mxGeometry width="50" height="50" relative="1" as="geometry">
            <mxPoint x="561.4300000000001" y="422" as="sourcePoint" />
            <mxPoint x="561" y="292" as="targetPoint" />
          </mxGeometry>
        </mxCell>
        <mxCell id="JehX5wkXH-OCQ7s4x-Md-67" value="" style="endArrow=none;dashed=1;html=1;strokeWidth=1;rounded=0;" edge="1" parent="1">
          <mxGeometry width="50" height="50" relative="1" as="geometry">
            <mxPoint x="530.4300000000001" y="422" as="sourcePoint" />
            <mxPoint x="530" y="292" as="targetPoint" />
          </mxGeometry>
        </mxCell>
        <mxCell id="JehX5wkXH-OCQ7s4x-Md-68" value="" style="endArrow=none;dashed=1;html=1;strokeWidth=1;rounded=0;" edge="1" parent="1">
          <mxGeometry width="50" height="50" relative="1" as="geometry">
            <mxPoint x="651" y="400" as="sourcePoint" />
            <mxPoint x="651" y="292" as="targetPoint" />
          </mxGeometry>
        </mxCell>
        <mxCell id="JehX5wkXH-OCQ7s4x-Md-69" value="" style="endArrow=none;dashed=1;html=1;strokeWidth=1;rounded=0;" edge="1" parent="1">
          <mxGeometry width="50" height="50" relative="1" as="geometry">
            <mxPoint x="621.4300000000001" y="422" as="sourcePoint" />
            <mxPoint x="621" y="292" as="targetPoint" />
          </mxGeometry>
        </mxCell>
        <mxCell id="JehX5wkXH-OCQ7s4x-Md-70" value="" style="curved=1;endArrow=none;html=1;rounded=0;endFill=0;dashed=1;" edge="1" parent="1">
          <mxGeometry width="50" height="50" relative="1" as="geometry">
            <mxPoint x="561" y="292" as="sourcePoint" />
            <mxPoint x="591" y="292" as="targetPoint" />
            <Array as="points">
              <mxPoint x="561" y="272" />
              <mxPoint x="581" y="262" />
              <mxPoint x="591" y="272" />
            </Array>
          </mxGeometry>
        </mxCell>
        <mxCell id="JehX5wkXH-OCQ7s4x-Md-71" value="" style="curved=1;endArrow=none;html=1;rounded=0;endFill=0;dashed=1;" edge="1" parent="1">
          <mxGeometry width="50" height="50" relative="1" as="geometry">
            <mxPoint x="621" y="290" as="sourcePoint" />
            <mxPoint x="651" y="290" as="targetPoint" />
            <Array as="points">
              <mxPoint x="621" y="270" />
              <mxPoint x="641" y="260" />
              <mxPoint x="651" y="270" />
            </Array>
          </mxGeometry>
        </mxCell>
        <mxCell id="JehX5wkXH-OCQ7s4x-Md-72" value="" style="curved=1;endArrow=none;html=1;rounded=0;endFill=0;dashed=1;" edge="1" parent="1">
          <mxGeometry width="50" height="50" relative="1" as="geometry">
            <mxPoint x="530.4300000000001" y="422" as="sourcePoint" />
            <mxPoint x="561.4300000000001" y="423" as="targetPoint" />
            <Array as="points">
              <mxPoint x="530.4300000000001" y="432" />
              <mxPoint x="540.4300000000001" y="442" />
              <mxPoint x="550.4300000000001" y="442" />
              <mxPoint x="560.4300000000001" y="432" />
            </Array>
          </mxGeometry>
        </mxCell>
        <mxCell id="JehX5wkXH-OCQ7s4x-Md-73" value="" style="curved=1;endArrow=none;html=1;rounded=0;endFill=0;dashed=1;" edge="1" parent="1">
          <mxGeometry width="50" height="50" relative="1" as="geometry">
            <mxPoint x="591" y="424" as="sourcePoint" />
            <mxPoint x="621.4300000000001" y="423" as="targetPoint" />
            <Array as="points">
              <mxPoint x="590.4300000000001" y="432" />
              <mxPoint x="600.4300000000001" y="442" />
              <mxPoint x="610.4300000000001" y="442" />
              <mxPoint x="620.4300000000001" y="432" />
            </Array>
          </mxGeometry>
        </mxCell>
        <mxCell id="JehX5wkXH-OCQ7s4x-Md-74" value="&lt;b&gt;Simple automation&lt;/b&gt;" style="text;html=1;align=center;verticalAlign=middle;resizable=0;points=[];autosize=1;strokeColor=none;fillColor=none;" vertex="1" parent="1">
          <mxGeometry x="348" y="237" width="130" height="30" as="geometry" />
        </mxCell>
        <mxCell id="JehX5wkXH-OCQ7s4x-Md-75" value="&lt;b&gt;Fully autonomous&lt;/b&gt;" style="text;html=1;align=center;verticalAlign=middle;resizable=0;points=[];autosize=1;strokeColor=none;fillColor=none;" vertex="1" parent="1">
          <mxGeometry x="540" y="234" width="130" height="30" as="geometry" />
        </mxCell>
        <mxCell id="JehX5wkXH-OCQ7s4x-Md-76" value="" style="shape=mxgraph.pid.vessels.gas_bottle;html=1;pointerEvents=1;align=center;verticalLabelPosition=bottom;verticalAlign=top;dashed=0;" vertex="1" parent="1">
          <mxGeometry x="338" y="460" width="10" height="20" as="geometry" />
        </mxCell>
        <mxCell id="JehX5wkXH-OCQ7s4x-Md-77" value="Trash" style="text;html=1;align=center;verticalAlign=middle;resizable=0;points=[];autosize=1;strokeColor=none;fillColor=none;" vertex="1" parent="1">
          <mxGeometry x="344" y="457" width="50" height="30" as="geometry" />
        </mxCell>
        <mxCell id="JehX5wkXH-OCQ7s4x-Md-78" value="" style="ellipse;shape=cloud;whiteSpace=wrap;html=1;fillColor=#f5f5f5;fontColor=#333333;strokeColor=#666666;" vertex="1" parent="1">
          <mxGeometry x="414" y="460" width="22" height="20" as="geometry" />
        </mxCell>
        <mxCell id="JehX5wkXH-OCQ7s4x-Md-79" value="Obstacle" style="text;html=1;align=center;verticalAlign=middle;resizable=0;points=[];autosize=1;strokeColor=none;fillColor=none;" vertex="1" parent="1">
          <mxGeometry x="427" y="457" width="70" height="30" as="geometry" />
        </mxCell>
        <mxCell id="JehX5wkXH-OCQ7s4x-Md-80" value="Planned path" style="text;html=1;align=center;verticalAlign=middle;resizable=0;points=[];autosize=1;strokeColor=none;fillColor=none;" vertex="1" parent="1">
          <mxGeometry x="517" y="447" width="90" height="30" as="geometry" />
        </mxCell>
        <mxCell id="JehX5wkXH-OCQ7s4x-Md-81" value="Corrected path" style="text;html=1;align=center;verticalAlign=middle;resizable=0;points=[];autosize=1;strokeColor=none;fillColor=none;" vertex="1" parent="1">
          <mxGeometry x="516" y="463" width="100" height="30" as="geometry" />
        </mxCell>
        <mxCell id="JehX5wkXH-OCQ7s4x-Md-82" value="" style="endArrow=none;html=1;rounded=0;dashed=1;" edge="1" parent="1">
          <mxGeometry width="50" height="50" relative="1" as="geometry">
            <mxPoint x="612" y="461.77" as="sourcePoint" />
            <mxPoint x="662" y="461.77" as="targetPoint" />
          </mxGeometry>
        </mxCell>
        <mxCell id="JehX5wkXH-OCQ7s4x-Md-83" value="" style="endArrow=none;html=1;rounded=0;dashed=1;strokeColor=#FF1008;" edge="1" parent="1">
          <mxGeometry width="50" height="50" relative="1" as="geometry">
            <mxPoint x="612" y="479.53" as="sourcePoint" />
            <mxPoint x="662" y="479.53" as="targetPoint" />
          </mxGeometry>
        </mxCell>
        <mxCell id="JehX5wkXH-OCQ7s4x-Md-85" value="" style="curved=1;endArrow=none;html=1;rounded=0;strokeColor=#FF1008;endFill=0;dashed=1;" edge="1" parent="1">
          <mxGeometry width="50" height="50" relative="1" as="geometry">
            <mxPoint x="371" y="384" as="sourcePoint" />
            <mxPoint x="371" y="329" as="targetPoint" />
            <Array as="points">
              <mxPoint x="380" y="370" />
              <mxPoint x="371" y="334" />
            </Array>
          </mxGeometry>
        </mxCell>
        <mxCell id="JehX5wkXH-OCQ7s4x-Md-88" value="" style="curved=1;endArrow=none;html=1;rounded=0;strokeColor=#FF1008;endFill=0;dashed=1;" edge="1" parent="1">
          <mxGeometry width="50" height="50" relative="1" as="geometry">
            <mxPoint x="460" y="380" as="sourcePoint" />
            <mxPoint x="461" y="304" as="targetPoint" />
            <Array as="points">
              <mxPoint x="480" y="350" />
              <mxPoint x="459" y="308" />
            </Array>
          </mxGeometry>
        </mxCell>
        <mxCell id="JehX5wkXH-OCQ7s4x-Md-89" value="" style="curved=1;endArrow=none;html=1;rounded=0;strokeColor=#FF1008;endFill=0;dashed=1;" edge="1" parent="1">
          <mxGeometry width="50" height="50" relative="1" as="geometry">
            <mxPoint x="650.5" y="380" as="sourcePoint" />
            <mxPoint x="670" y="290" as="targetPoint" />
            <Array as="points">
              <mxPoint x="660" y="350" />
              <mxPoint x="670" y="300" />
            </Array>
          </mxGeometry>
        </mxCell>
        <mxCell id="JehX5wkXH-OCQ7s4x-Md-90" value="" style="curved=1;endArrow=none;html=1;rounded=0;strokeColor=#FF1008;endFill=0;dashed=1;" edge="1" parent="1">
          <mxGeometry width="50" height="50" relative="1" as="geometry">
            <mxPoint x="620" y="340" as="sourcePoint" />
            <mxPoint x="670" y="291" as="targetPoint" />
            <Array as="points">
              <mxPoint x="613" y="312" />
              <mxPoint x="598" y="291" />
              <mxPoint x="618" y="271" />
              <mxPoint x="640" y="260" />
              <mxPoint x="670" y="260" />
            </Array>
          </mxGeometry>
        </mxCell>
        <mxCell id="JehX5wkXH-OCQ7s4x-Md-91" value="" style="curved=1;endArrow=none;html=1;rounded=0;strokeColor=#FF1008;endFill=0;dashed=1;" edge="1" parent="1">
          <mxGeometry width="50" height="50" relative="1" as="geometry">
            <mxPoint x="561.5" y="385" as="sourcePoint" />
            <mxPoint x="561.5" y="330" as="targetPoint" />
            <Array as="points">
              <mxPoint x="570.5" y="371" />
              <mxPoint x="561.5" y="335" />
            </Array>
          </mxGeometry>
        </mxCell>
        <mxCell id="JehX5wkXH-OCQ7s4x-Md-92" value="" style="curved=1;endArrow=none;html=1;rounded=0;strokeColor=#FF1008;endFill=0;dashed=1;" edge="1" parent="1">
          <mxGeometry width="50" height="50" relative="1" as="geometry">
            <mxPoint x="431" y="339" as="sourcePoint" />
            <mxPoint x="436" y="267" as="targetPoint" />
            <Array as="points">
              <mxPoint x="424" y="311" />
              <mxPoint x="409" y="290" />
              <mxPoint x="429" y="270" />
            </Array>
          </mxGeometry>
        </mxCell>
        <mxCell id="JehX5wkXH-OCQ7s4x-Md-93" value="" style="triangle;whiteSpace=wrap;html=1;rotation=-90;" vertex="1" parent="1">
          <mxGeometry x="447" y="410" width="30" height="20" as="geometry" />
        </mxCell>
        <mxCell id="JehX5wkXH-OCQ7s4x-Md-94" value="" style="triangle;whiteSpace=wrap;html=1;rotation=-90;" vertex="1" parent="1">
          <mxGeometry x="636" y="410" width="30" height="20" as="geometry" />
        </mxCell>
      </root>
    </mxGraphModel>
  </diagram>
</mxfile>
